<svg xmlns="http://www.w3.org/2000/svg" width="px" height="16" viewBox="0 0 11 15"><path d="M-39.484-101.162h150.53v222.397h-150.53Zm0 0" style="fill-rule:nonzero;fill:#fff;fill-opacity:1;stroke-width:8.48;stroke-linecap:round;stroke-linejoin:round;stroke:#000;stroke-opacity:1;stroke-miterlimit:4" transform="matrix(.06918 0 0 .06494 3.025 6.842)"/><path d="M5.477 2.648c-1.325 0-2.649 1.114-2.649 2.176v5.711c0 .719.793 1.852 2.602 1.852 1.465 0 2.601-1.059 2.601-1.852V7.816c0-1.921-2.55-1.964-3.445-1.691V4.691c0-.77 1.965-.742 1.965 0h1.578c0-.93-1.328-2.043-2.652-2.043m-.098 4.786c.453-.016.934.168.934.543v2.21c0 .973-1.708 1.036-1.708 0v-2.23c0-.336.375-.508.774-.523m0 0" style="stroke:none;fill-rule:nonzero;fill:#000;fill-opacity:1"/><path d="M154.2 4.03 5.986 226.127" style="fill-rule:nonzero;fill:#000;fill-opacity:1;stroke-width:11.8;stroke-linecap:butt;stroke-linejoin:miter;stroke:#000;stroke-opacity:1;stroke-miterlimit:4" transform="scale(.06918 .06494)"/></svg>