<svg xmlns="http://www.w3.org/2000/svg" width="px" height="16" viewBox="0 0 11 16"><path d="M-34.955-97.76h140.776v214.757H-34.955Zm0 0" style="fill-rule:nonzero;fill:#fff;fill-opacity:1;stroke-width:16;stroke-linecap:round;stroke-linejoin:round;stroke:#008df7;stroke-opacity:1;stroke-miterlimit:4" transform="matrix(.07006 0 0 .06926 3.008 7.326)"/><path d="M5.488 2.852c-1.644 0-3.011 1.183-3.14 2.718h1.59c.132-.687.777-1.21 1.55-1.21.867 0 1.574.663 1.574 1.476 0 .992-.726 1.574-1.57 1.574h-.71v1.27h.71c.844.004 1.57.586 1.57 1.574 0 .816-.707 1.476-1.574 1.476-.773 0-1.418-.52-1.55-1.207h-1.59c.129 1.536 1.496 2.715 3.14 2.72 1.739 0 3.149-1.325 3.149-2.958 0-.922-.45-1.719-1.157-2.238.707-.52 1.157-1.32 1.157-2.242 0-1.633-1.41-2.953-3.149-2.953m0 0" style="stroke:none;fill-rule:nonzero;fill:#000;fill-opacity:1"/></svg>