<svg xmlns="http://www.w3.org/2000/svg" width="px" height="16" viewBox="0 0 11 16"><path d="M-34.955-96.982h140.776v214.758H-34.955Zm0 0" style="fill-rule:nonzero;fill:#fff;fill-opacity:1;stroke-width:16;stroke-linecap:round;stroke-linejoin:round;stroke:#008df7;stroke-opacity:1;stroke-miterlimit:4" transform="matrix(.07006 0 0 .06926 3.008 7.272)"/><path d="M2.813 2.797v5.605h1.39v-.047c.164-.554.68-.94 1.27-.94.707 0 1.289.55 1.324 1.245L6.78 10.56c-.058.683-.593 1.21-1.289 1.21a1.33 1.33 0 0 1-1.332-1.21H2.816c.008 1.453 1.204 2.629 2.676 2.629 1.465 0 2.656-1.168 2.676-2.614V8.66h-.004q.007-.088.008-.18c0-1.351-1.106-2.44-2.469-2.44-.562 0-1.082.187-1.5.503V4.18h3.754V2.809H4.203v-.012Zm0 0" style="stroke:none;fill-rule:nonzero;fill:#000;fill-opacity:1"/></svg>