<svg xmlns="http://www.w3.org/2000/svg" width="px" height="16" viewBox="0 0 11 15"><path d="M20.107 20.173h554.94v554.974H20.107Zm0 0" style="fill-rule:evenodd;fill:#c15b0f;fill-opacity:1;stroke-width:40.259998;stroke-linecap:butt;stroke-linejoin:miter;stroke:#f0c900;stroke-opacity:1;stroke-miterlimit:4" transform="scale(.01846 .01781)"/><path d="M20.318 573.613 573.565 21.707M20.107 407.405 404.459 24.12M184.345 570.762l389.432-388.548M354.298 574.27 571.026 358.29M24.34 242.952l223.288-222.78" style="fill:none;stroke-width:42.52;stroke-linecap:butt;stroke-linejoin:miter;stroke:#f0c900;stroke-opacity:1;stroke-miterlimit:4" transform="scale(.01846 .01781)"/><path d="M6.773 602.337h581.82v232.866H6.772Zm0 0" style="fill-rule:evenodd;fill:#fff;fill-opacity:1;stroke-width:13.38;stroke-linecap:butt;stroke-linejoin:miter;stroke:#000;stroke-opacity:1;stroke-miterlimit:4" transform="scale(.01846 .01781)"/><path d="M3.535 13.008v-.309h.797v.438a.71.71 0 0 1-.234.543.78.78 0 0 1-.563.222.75.75 0 0 1-.441-.12.75.75 0 0 1-.258-.266.6.6 0 0 1-.078-.207 4 4 0 0 1-.02-.5q.001-.388.02-.5a.6.6 0 0 1 .078-.207.8.8 0 0 1 .258-.266.76.76 0 0 1 .441-.125q.317 0 .524.187a.8.8 0 0 1 .257.454h-.355a.47.47 0 0 0-.152-.22.42.42 0 0 0-.274-.093.4.4 0 0 0-.207.047.5.5 0 0 0-.14.11.5.5 0 0 0-.09.183 2.4 2.4 0 0 0-.024.43q0 .333.024.433a.46.46 0 0 0 .23.29.4.4 0 0 0 .207.046.45.45 0 0 0 .457-.457v-.113ZM4.531 13.605l.223-.242q.127.096.289.157.167.058.344.058.208 0 .324-.082a.25.25 0 0 0 .121-.219q0-.252-.293-.293-.076-.008-.14-.015-.07-.01-.157-.02-.288-.039-.441-.207a.58.58 0 0 1-.149-.402q0-.274.188-.45.193-.18.539-.18c.137 0 .266.024.387.063.125.043.234.098.336.165l-.188.269a1.2 1.2 0 0 0-.262-.121.9.9 0 0 0-.289-.047.45.45 0 0 0-.265.078.27.27 0 0 0-.035.403q.073.075.242.105.045.005.11.016.062.008.144.015c.207.024.363.098.46.219a.63.63 0 0 1 .149.402q0 .299-.211.461c-.144.11-.332.164-.574.164-.336 0-.617-.097-.852-.297M6.293 13.883l.812-2.156h.282l.812 2.156h-.355l-.172-.485h-.848l-.176.485Zm.633-.774h.644q-.07-.2-.11-.312-.04-.117-.07-.2l-.058-.179a3 3 0 0 1-.082-.242q-.054.159-.086.254-.034.095-.062.183l-.07.2c-.024.07-.063.171-.106.296m0 0" style="stroke:none;fill-rule:nonzero;fill:#000;fill-opacity:1"/></svg>